<?xml version="1.0" encoding="utf-8"?>
<!-- Generator: Adobe Illustrator 23.0.6, SVG Export Plug-In . SVG Version: 6.00 Build 0)  -->
<svg version="1.2" baseProfile="tiny" id="Layer_1" xmlns="http://www.w3.org/2000/svg" xmlns:xlink="http://www.w3.org/1999/xlink"
	 x="0px" y="0px" viewBox="0 0 19.38 25.26" xml:space="preserve">
<path d="M19.31,19.9c0.02-0.06,0.04-0.11,0.06-0.17c0.01-0.03,0.01-0.06,0.01-0.09c0-0.05,0-0.11,0-0.16c0-0.03-0.01-0.06-0.01-0.09
	c-0.01-0.06-0.04-0.11-0.06-0.17c-0.01-0.02-0.02-0.05-0.03-0.07c0-0.01-0.01-0.01-0.01-0.02c-0.17-0.27-0.33-0.54-0.5-0.81
	c0,0,0,0,0,0c0,0,0,0,0,0c0,0,0,0,0,0c0,0,0,0,0,0c-0.25-0.41-0.47-0.83-0.68-1.24c-0.08-0.16-0.15-0.32-0.22-0.47
	c-0.1-0.22-0.18-0.45-0.27-0.67c-0.02-0.05-0.04-0.11-0.06-0.16c-0.03-0.07-0.05-0.14-0.08-0.22c-0.03-0.09-0.05-0.17-0.08-0.26
	c0-0.01-0.01-0.02-0.01-0.03c-0.08-0.27-0.15-0.53-0.2-0.8c-0.03-0.14-0.06-0.28-0.08-0.43c-0.07-0.43-0.13-0.85-0.14-1.27
	c-0.01-0.25-0.01-0.47,0-0.68c0.01-0.22,0.02-0.45,0.03-0.67c0.01-0.15,0.02-0.31,0.03-0.46c0.02-0.34,0.02-0.53,0.01-0.77
	c0,0,0-0.01,0-0.01c0-0.23-0.02-0.47-0.05-0.73c0-0.02,0-0.03,0-0.05c-0.03-0.24-0.06-0.51-0.11-0.79c0-0.01,0-0.02,0-0.04
	c0-0.02-0.01-0.04-0.01-0.06c-0.02-0.13-0.05-0.27-0.07-0.41c-0.02-0.08-0.03-0.16-0.05-0.23c-0.01-0.05-0.02-0.09-0.03-0.14
	c-0.01-0.04-0.02-0.07-0.02-0.1c-0.01-0.04-0.02-0.09-0.03-0.13c-0.01-0.04-0.02-0.08-0.03-0.12c-0.03-0.12-0.06-0.23-0.09-0.34
	c-0.02-0.06-0.03-0.11-0.05-0.16c-0.03-0.1-0.06-0.19-0.09-0.28c-0.02-0.06-0.03-0.1-0.05-0.15c-0.02-0.07-0.05-0.14-0.07-0.21
	c-0.04-0.09-0.07-0.17-0.09-0.23c0,0,0-0.01-0.01-0.01c-0.1-0.23-0.19-0.43-0.28-0.59c-0.02-0.04-0.04-0.08-0.07-0.12
	c-0.06-0.11-0.12-0.22-0.18-0.3c-0.09-0.15-0.27-0.41-0.52-0.72c-0.01-0.02-0.04-0.05-0.05-0.06c-0.4-0.48-1.03-1.06-1.93-1.54
	c-0.05-0.03-0.11-0.05-0.17-0.08c-0.16-0.08-0.34-0.16-0.52-0.23c-0.08-0.03-0.16-0.07-0.25-0.1c-0.01-0.08-0.03-0.16-0.05-0.23
	c0-0.02-0.01-0.03-0.02-0.05c-0.04-0.13-0.08-0.25-0.13-0.37c-0.02-0.05-0.05-0.09-0.07-0.14c-0.04-0.08-0.08-0.16-0.13-0.23
	c-0.04-0.06-0.09-0.12-0.13-0.17C11.62,1,11.59,0.95,11.55,0.9c-0.01-0.01-0.03-0.03-0.04-0.04c-0.01-0.01-0.01-0.01-0.02-0.02
	c-0.06-0.07-0.15-0.14-0.25-0.22c-0.02-0.02-0.05-0.04-0.08-0.06c-0.06-0.05-0.13-0.09-0.21-0.14c-0.06-0.03-0.11-0.07-0.17-0.09
	c-0.05-0.03-0.11-0.06-0.17-0.08c-0.12-0.05-0.25-0.1-0.37-0.13c0.05,0.01,0.08,0.03,0.12,0.05c-0.04-0.01-0.08-0.03-0.13-0.04
	c-0.02-0.01-0.03-0.01-0.05-0.02c0,0,0,0,0,0c0,0,0,0,0,0c0,0,0,0,0,0c0,0,0,0,0,0c-0.01,0-0.03-0.01-0.05-0.01
	c0.02,0,0.03,0.01,0.05,0.01c0,0,0,0,0,0C10.06,0.08,9.9,0.06,9.73,0.06c0-0.02,0-0.04-0.01-0.06c0,0,0,0,0,0L9.72,0.06h0L9.73,0
	l0,0h0l0,0l0,0L9.39,0.08c-0.01,0-0.02,0-0.03,0.01C9.33,0.09,9.29,0.1,9.26,0.1c0,0,0,0,0,0c0,0,0,0,0,0c0,0,0,0,0,0c0,0,0,0,0,0
	c0,0,0,0,0,0C9.23,0.11,9.21,0.12,9.19,0.12C9.1,0.15,9,0.18,8.91,0.21C8.82,0.25,8.73,0.29,8.65,0.33
	C8.63,0.34,8.61,0.35,8.59,0.36c-0.11,0.06-0.21,0.12-0.3,0.19c0,0-0.01,0-0.01,0.01c-0.1,0.08-0.2,0.16-0.29,0.25
	C7.98,0.82,7.97,0.83,7.97,0.84C7.88,0.92,7.8,1.02,7.73,1.12C7.72,1.14,7.7,1.16,7.69,1.18c-0.07,0.1-0.13,0.2-0.18,0.31
	C7.49,1.51,7.48,1.54,7.47,1.56C7.41,1.68,7.37,1.8,7.33,1.93C7.32,1.95,7.31,1.97,7.31,2C7.28,2.07,7.27,2.15,7.26,2.23
	C7.2,2.26,7.14,2.28,7.08,2.3C7,2.33,6.92,2.37,6.84,2.41c-0.23,0.1-0.45,0.2-0.66,0.32C6.1,2.77,6.01,2.82,5.93,2.87
	C5.73,2.99,5.55,3.12,5.39,3.24C5.33,3.29,5.27,3.33,5.22,3.37C4.47,3.97,4.02,4.6,3.8,4.96C3.78,5,3.75,5.05,3.72,5.1
	C3.69,5.15,3.67,5.19,3.64,5.24C3.57,5.36,3.49,5.5,3.41,5.67c-0.03,0.05-0.05,0.1-0.07,0.15c-0.06,0.12-0.11,0.26-0.17,0.4
	c0,0.01-0.01,0.01-0.01,0.02c0,0,0,0,0,0.01C3.02,6.64,2.87,7.11,2.75,7.7c0,0.02-0.01,0.04-0.01,0.06C2.64,8.2,2.57,8.59,2.53,8.88
	c-0.01,0.04-0.01,0.07-0.01,0.1C2.5,9.11,2.48,9.21,2.47,9.28c0,0.01,0,0.03-0.01,0.05c-0.01,0.05-0.01,0.09-0.01,0.1
	c0,0.01,0,0.02,0,0.04c0,0.04-0.01,0.09-0.01,0.12C2.44,9.66,2.43,9.73,2.43,9.81c-0.01,0.1-0.01,0.2-0.02,0.28
	c0,0.03,0,0.05,0,0.08c0,0.09-0.01,0.2-0.01,0.27c0,0.19,0.01,0.36,0.01,0.54c0,0.02,0,0.03,0,0.05c0.01,0.11,0.01,0.22,0.02,0.36
	c0,0,0,0.01,0,0.02c0-0.01,0-0.01,0-0.02c0.01,0.21,0.03,0.42,0.03,0.64c0.01,0.22,0.01,0.45-0.01,0.7
	c-0.02,0.42-0.08,0.85-0.15,1.27c-0.02,0.14-0.05,0.28-0.08,0.42c0,0.01,0,0.01,0,0.02c-0.05,0.23-0.12,0.47-0.18,0.7
	c-0.08,0.28-0.18,0.57-0.3,0.87c-0.07,0.17-0.13,0.33-0.2,0.5c-0.07,0.17-0.16,0.35-0.25,0.53c-0.2,0.41-0.42,0.82-0.67,1.22
	c0,0,0,0,0,0c0,0,0,0,0,0c-0.17,0.27-0.33,0.54-0.5,0.81c-0.01,0.02-0.01,0.03-0.02,0.05c-0.01,0.03-0.03,0.05-0.04,0.08
	c-0.02,0.05-0.04,0.11-0.05,0.16C0.01,19.42,0.01,19.44,0,19.47C0,19.53,0,19.6,0.01,19.67c0,0.01,0,0.02,0,0.03
	c0.02,0.08,0.05,0.16,0.09,0.24c0.01,0.02,0.03,0.05,0.04,0.07c0.04,0.06,0.08,0.11,0.13,0.17c0.02,0.03,0.05,0.05,0.08,0.08
	c0.06,0.06,0.12,0.11,0.19,0.16c0.03,0.02,0.06,0.05,0.09,0.07c0.11,0.08,0.22,0.16,0.36,0.23c2.36,1.34,8.16,1.9,12.97,1.25
	c0.28-0.04,0.54-0.08,0.8-0.12c0.08-0.01,0.16-0.03,0.24-0.04c0.17-0.03,0.34-0.06,0.51-0.1c0.09-0.02,0.17-0.04,0.26-0.06
	c0.15-0.03,0.3-0.07,0.44-0.1c0.08-0.02,0.15-0.04,0.23-0.06c0.16-0.04,0.3-0.08,0.45-0.13c0.05-0.02,0.11-0.03,0.16-0.05
	c0.19-0.06,0.37-0.12,0.53-0.19c0.04-0.01,0.07-0.03,0.1-0.04c0.13-0.05,0.25-0.1,0.36-0.16c0.05-0.02,0.1-0.05,0.14-0.07
	c0.09-0.05,0.18-0.09,0.26-0.14c0.04-0.03,0.09-0.05,0.13-0.08c0.08-0.05,0.15-0.1,0.21-0.15c0.03-0.03,0.07-0.05,0.1-0.08
	c0.08-0.06,0.14-0.13,0.2-0.19c0.01-0.01,0.02-0.02,0.03-0.03c0.07-0.08,0.12-0.16,0.16-0.23C19.29,19.94,19.3,19.92,19.31,19.9z
	 M18.88,18.73C18.88,18.73,18.88,18.73,18.88,18.73C18.88,18.73,18.88,18.73,18.88,18.73C18.88,18.73,18.88,18.73,18.88,18.73
	C18.88,18.73,18.88,18.73,18.88,18.73z M9.72,0.06c-0.04,0-0.08,0-0.12,0.01l0.02-0.01h0L9.73,0C9.72,0.02,9.72,0.04,9.72,0.06z
	 M9.09,0.15c0.02-0.01,0.05-0.02,0.08-0.02C9.14,0.14,9.11,0.15,9.09,0.15z"/>
<circle cx="9.69" cy="22.7" r="2.55"/>
</svg>
