<?xml version="1.0" encoding="utf-8"?>
<!-- Generator: Adobe Illustrator 23.0.6, SVG Export Plug-In . SVG Version: 6.00 Build 0)  -->
<svg version="1.1" id="Слой_1" xmlns="http://www.w3.org/2000/svg" xmlns:xlink="http://www.w3.org/1999/xlink" x="0px" y="0px"
	 viewBox="0 0 16 16" style="enable-background:new 0 0 16 16;" xml:space="preserve">
<style type="text/css">
	.st0{fill:#5AA5E2;}
</style>
<path class="st0" d="M16,9.5v-3h-1.8l-0.7-1.8l1.3-1.3l-2.1-2.1l-1.3,1.3L9.5,1.8V0h-3v1.8L4.7,2.6L3.4,1.3L1.3,3.4l1.3,1.3L1.8,6.5
	H0v3h1.8l0.7,1.8l-1.3,1.3l2.1,2.1l1.3-1.3l1.8,0.7V16h3v-1.8l1.8-0.7l1.3,1.3l2.1-2.1l-1.3-1.3L14,9.6h2V9.5z M8,12
	c-2.2,0-4-1.8-4-4s1.8-4,4-4s4,1.8,4,4S10.2,12,8,12z"/>
</svg>
